<?xml version='1.0' encoding='utf-8'?>
<mxfile host="app.diagrams.net" version="22.0.8" type="device"><diagram id="page1" name="1) GA4 - Hierarchy"><mxGraphModel dx="1200" dy="800" grid="1" gridSize="10" page="1" pageScale="1" pageWidth="1600" pageHeight="900"><root><mxCell id="0" /><mxCell id="1" parent="0" /><mxCell id="ga4lane" parent="1" value="GA4" style="swimlane;fontStyle=1;startSize=28;fillColor=#fde0dc;strokeColor=#c62828;" vertex="1"><mxGeometry x="40" y="40" width="720" height="760" as="geometry" /></mxCell><mxCell id="ga4acc" parent="ga4lane" value="Account" style="rounded=1;whiteSpace=wrap;html=1;fillColor=#ffffff;strokeColor=#c62828;" vertex="1"><mxGeometry x="30" y="60" width="660" height="50" as="geometry" /></mxCell><mxCell id="ga4prop" parent="ga4lane" value="Property (Project/Domain)" style="rounded=1;whiteSpace=wrap;html=1;fillColor=#ffffff;strokeColor=#c62828;" vertex="1"><mxGeometry x="30" y="120" width="660" height="50" as="geometry" /></mxCell><mxCell id="ga4stream" parent="ga4lane" value="Data Streams (Web/iOS/Android)" style="rounded=1;whiteSpace=wrap;html=1;fillColor=#ffffff;strokeColor=#c62828;" vertex="1"><mxGeometry x="30" y="180" width="660" height="50" as="geometry" /></mxCell><mxCell id="ga4events" parent="ga4lane" value="Events (Default + Custom)" style="rounded=1;whiteSpace=wrap;html=1;fillColor=#ffffff;strokeColor=#c62828;" vertex="1"><mxGeometry x="30" y="240" width="660" height="50" as="geometry" /></mxCell><mxCell id="ga4params" parent="ga4lane" value="Parameters (Auto + Custom)" style="rounded=1;whiteSpace=wrap;html=1;fillColor=#ffffff;strokeColor=#c62828;" vertex="1"><mxGeometry x="30" y="300" width="660" height="50" as="geometry" /></mxCell><mxCell id="ga4metrics" parent="ga4lane" value="Metrics and Dimensions" style="rounded=1;whiteSpace=wrap;html=1;fillColor=#ffffff;strokeColor=#c62828;" vertex="1"><mxGeometry x="30" y="360" width="660" height="50" as="geometry" /></mxCell><mxCell id="ga4conv" parent="ga4lane" value="Conversions (per Property)" style="rounded=1;whiteSpace=wrap;html=1;fillColor=#ffffff;strokeColor=#c62828;" vertex="1"><mxGeometry x="30" y="420" width="660" height="50" as="geometry" /></mxCell><mxCell id="ga4aud" parent="ga4lane" value="Audiences" style="rounded=1;whiteSpace=wrap;html=1;fillColor=#ffffff;strokeColor=#c62828;" vertex="1"><mxGeometry x="30" y="480" width="660" height="50" as="geometry" /></mxCell><mxCell id="ga4expl" parent="ga4lane" value="Explorations (Funnels, Paths, Cohorts)" style="rounded=1;whiteSpace=wrap;html=1;fillColor=#ffffff;strokeColor=#c62828;" vertex="1"><mxGeometry x="30" y="540" width="660" height="50" as="geometry" /></mxCell><mxCell id="ga4std" parent="ga4lane" value="Standard Reports (Acquisition, Engagement, Monetization)" style="rounded=1;whiteSpace=wrap;html=1;fillColor=#ffffff;strokeColor=#c62828;" vertex="1"><mxGeometry x="30" y="600" width="660" height="50" as="geometry" /></mxCell></root></mxGraphModel></diagram><diagram id="page2" name="2) GTM - Hierarchy"><mxGraphModel dx="1200" dy="800" grid="1" gridSize="10" page="1" pageScale="1" pageWidth="1600" pageHeight="900"><root><mxCell id="0" /><mxCell id="1" parent="0" /><mxCell id="gtmlane" parent="1" value="Google Tag Manager" style="swimlane;fontStyle=1;startSize=28;fillColor=#ffecb3;strokeColor=#ef6c00;" vertex="1"><mxGeometry x="40" y="40" width="720" height="760" as="geometry" /></mxCell><mxCell id="gtmacc" parent="gtmlane" value="Account" style="rounded=1;whiteSpace=wrap;html=1;fillColor=#ffffff;strokeColor=#ef6c00;" vertex="1"><mxGeometry x="30" y="60" width="660" height="50" as="geometry" /></mxCell><mxCell id="gtmcont" parent="gtmlane" value="Container (per Site/App)" style="rounded=1;whiteSpace=wrap;html=1;fillColor=#ffffff;strokeColor=#ef6c00;" vertex="1"><mxGeometry x="30" y="120" width="660" height="50" as="geometry" /></mxCell><mxCell id="gtmtags" parent="gtmlane" value="Tags (GA4 Config, GA4 Event, Ads, Custom HTML)" style="rounded=1;whiteSpace=wrap;html=1;fillColor=#ffffff;strokeColor=#ef6c00;" vertex="1"><mxGeometry x="30" y="180" width="660" height="50" as="geometry" /></mxCell><mxCell id="gtmtrig" parent="gtmlane" value="Triggers (Page View, Click, Form, Custom Event)" style="rounded=1;whiteSpace=wrap;html=1;fillColor=#ffffff;strokeColor=#ef6c00;" vertex="1"><mxGeometry x="30" y="240" width="660" height="50" as="geometry" /></mxCell><mxCell id="gtmvars" parent="gtmlane" value="Variables (Built-in, Data Layer, Custom JS)" style="rounded=1;whiteSpace=wrap;html=1;fillColor=#ffffff;strokeColor=#ef6c00;" vertex="1"><mxGeometry x="30" y="300" width="660" height="50" as="geometry" /></mxCell><mxCell id="gtmdl" parent="gtmlane" value="Data Layer (web to GTM contract)" style="rounded=1;whiteSpace=wrap;html=1;fillColor=#ffffff;strokeColor=#ef6c00;" vertex="1"><mxGeometry x="30" y="360" width="660" height="50" as="geometry" /></mxCell><mxCell id="gtmprev" parent="gtmlane" value="Preview and Versions" style="rounded=1;whiteSpace=wrap;html=1;fillColor=#ffffff;strokeColor=#ef6c00;" vertex="1"><mxGeometry x="30" y="420" width="660" height="50" as="geometry" /></mxCell><mxCell id="gtmpub" parent="gtmlane" value="Publish" style="rounded=1;whiteSpace=wrap;html=1;fillColor=#ffffff;strokeColor=#ef6c00;" vertex="1"><mxGeometry x="30" y="480" width="660" height="50" as="geometry" /></mxCell></root></mxGraphModel></diagram><diagram id="page3" name="3) Mapping GA4 to GTM"><mxGraphModel dx="1200" dy="800" grid="1" gridSize="10" page="1" pageScale="1" pageWidth="1600" pageHeight="900"><root><mxCell id="0" /><mxCell id="1" parent="0" /><mxCell id="mapga4" parent="1" value="GA4" style="swimlane;fontStyle=1;startSize=26;fillColor=#fde0dc;strokeColor=#c62828;" vertex="1"><mxGeometry x="40" y="40" width="720" height="760" as="geometry" /></mxCell><mxCell id="mapgtm" parent="1" value="GTM" style="swimlane;fontStyle=1;startSize=26;fillColor=#ffecb3;strokeColor=#ef6c00;" vertex="1"><mxGeometry x="840" y="40" width="720" height="760" as="geometry" /></mxCell><mxCell id="mprop" parent="mapga4" value="Property" style="rounded=1;whiteSpace=wrap;html=1;fillColor=#ffffff;strokeColor=#c62828;" vertex="1"><mxGeometry x="30" y="50" width="660" height="50" as="geometry" /></mxCell><mxCell id="mstream" parent="mapga4" value="Data Stream (Web) - Measurement ID G-XXXXXXX" style="rounded=1;whiteSpace=wrap;html=1;fillColor=#ffffff;strokeColor=#c62828;" vertex="1"><mxGeometry x="30" y="120" width="660" height="50" as="geometry" /></mxCell><mxCell id="mevents" parent="mapga4" value="Events" style="rounded=1;whiteSpace=wrap;html=1;fillColor=#ffffff;" vertex="1"><mxGeometry x="50" y="190" width="620" height="45" as="geometry" /></mxCell><mxCell id="mparams" parent="mapga4" value="Parameters" style="rounded=1;whiteSpace=wrap;html=1;fillColor=#ffffff;" vertex="1"><mxGeometry x="50" y="245" width="620" height="45" as="geometry" /></mxCell><mxCell id="mmetrics" parent="mapga4" value="Metrics and Dimensions" style="rounded=1;whiteSpace=wrap;html=1;fillColor=#ffffff;" vertex="1"><mxGeometry x="50" y="300" width="620" height="45" as="geometry" /></mxCell><mxCell id="mconv" parent="mapga4" value="Conversions" style="rounded=1;whiteSpace=wrap;html=1;fillColor=#ffffff;" vertex="1"><mxGeometry x="50" y="355" width="620" height="45" as="geometry" /></mxCell><mxCell id="maud" parent="mapga4" value="Audiences" style="rounded=1;whiteSpace=wrap;html=1;fillColor=#ffffff;" vertex="1"><mxGeometry x="50" y="410" width="620" height="45" as="geometry" /></mxCell><mxCell id="mcont" parent="mapgtm" value="Container" style="rounded=1;whiteSpace=wrap;html=1;fillColor=#ffffff;strokeColor=#ef6c00;" vertex="1"><mxGeometry x="30" y="50" width="660" height="50" as="geometry" /></mxCell><mxCell id="mtagcfg" parent="mapgtm" value="Tag: GA4 Configuration (uses Measurement ID)" style="rounded=1;whiteSpace=wrap;html=1;fillColor=#ffffff;" vertex="1"><mxGeometry x="30" y="120" width="660" height="45" as="geometry" /></mxCell><mxCell id="mtagevt" parent="mapgtm" value="Tag: GA4 Event (sends event and params)" style="rounded=1;whiteSpace=wrap;html=1;fillColor=#ffffff;" vertex="1"><mxGeometry x="30" y="175" width="660" height="45" as="geometry" /></mxCell><mxCell id="mtrig" parent="mapgtm" value="Triggers (decide when tags fire)" style="rounded=1;whiteSpace=wrap;html=1;fillColor=#ffffff;" vertex="1"><mxGeometry x="30" y="230" width="660" height="45" as="geometry" /></mxCell><mxCell id="mvars" parent="mapgtm" value="Variables (provide values for params)" style="rounded=1;whiteSpace=wrap;html=1;fillColor=#ffffff;" vertex="1"><mxGeometry x="30" y="285" width="660" height="45" as="geometry" /></mxCell><mxCell id="mdl" parent="mapgtm" value="Data Layer (web to GTM)" style="rounded=1;whiteSpace=wrap;html=1;fillColor=#ffffff;" vertex="1"><mxGeometry x="30" y="340" width="660" height="45" as="geometry" /></mxCell><mxCell id="e1" edge="1" parent="1" source="mstream" target="mtagcfg" style="endArrow=block;strokeColor:#1e88e5;rounded=1;"><mxGeometry relative="1" as="geometry" /></mxCell><mxCell id="e2" edge="1" parent="1" source="mtagevt" target="mevents" style="endArrow=block;strokeColor:#1e88e5;rounded=1;"><mxGeometry relative="1" as="geometry" /></mxCell><mxCell id="e3" edge="1" parent="1" source="mvars" target="mparams" style="endArrow=block;strokeColor:#1e88e5;rounded=1;"><mxGeometry relative="1" as="geometry" /></mxCell><mxCell id="e4" edge="1" parent="1" source="mevents" target="mmetrics" style="endArrow=block;strokeColor:#1e88e5;rounded=1;"><mxGeometry relative="1" as="geometry" /></mxCell><mxCell id="e5" edge="1" parent="1" source="mevents" target="mconv" style="endArrow=block;strokeColor:#1e88e5;rounded=1;"><mxGeometry relative="1" as="geometry" /></mxCell><mxCell id="e6" edge="1" parent="1" source="mevents" target="maud" style="endArrow=block;strokeColor:#1e88e5;rounded=1;"><mxGeometry relative="1" as="geometry" /></mxCell></root></mxGraphModel></diagram></mxfile>